<svg xmlns="http://www.w3.org/2000/svg" width="600" height="150" viewBox="0 0 600 150" role="img" aria-labelledby="title description"><title id="title">我是 Bluu，做 AI 应用与开发者工具。 让问题、资料与执行，留在同一条研究线上。 维护 ThreadCove / Clawtide，参与开源贡献。</title><desc id="description">Bluu 的介绍静态版本。</desc><defs><path id="g0" d="M22.5 -24.5 25.1 -26.2Q26 -25.5 27 -24.6Q27.9 -23.6 28.7 -22.7Q29.5 -21.8 30 -21L27.2 -19.1Q26.8 -19.8 26.1 -20.8Q25.3 -21.7 24.4 -22.7Q23.4 -23.7 22.5 -24.5ZM1.6 -17.9H30.4V-14.7H1.6V-17.9ZM1.1 -8.8Q3 -9.1 5.5 -9.5Q8.1 -10 11 -10.5Q13.8 -11 16.6 -11.6L16.9 -8.5Q14.3 -7.9 11.6 -7.3Q9 -6.8 6.5 -6.2Q4 -5.7 2 -5.3L1.1 -8.8ZM7.9 -23.4H11.4V-1.3Q11.4 0.1 11 0.9Q10.7 1.7 9.8 2.1Q8.9 2.5 7.5 2.7Q6.1 2.8 4.1 2.8Q4 2.3 3.8 1.7Q3.6 1 3.4 0.4Q3.1 -0.2 2.9 -0.7Q4.3 -0.6 5.5 -0.6Q6.8 -0.6 7.2 -0.7Q7.6 -0.7 7.8 -0.8Q7.9 -1 7.9 -1.4V-23.4ZM14.4 -26.9 16.7 -23.9Q14.7 -23.3 12.3 -22.8Q9.9 -22.3 7.4 -21.9Q4.9 -21.5 2.6 -21.2Q2.5 -21.8 2.2 -22.7Q1.9 -23.5 1.6 -24.1Q3.8 -24.4 6.2 -24.8Q8.5 -25.3 10.6 -25.8Q12.8 -26.3 14.4 -26.9ZM17.5 -26.8H21.1Q21.1 -22.8 21.4 -19Q21.6 -15.2 22.2 -11.8Q22.8 -8.5 23.6 -6Q24.3 -3.4 25.2 -2Q26.1 -0.6 27.1 -0.6Q27.6 -0.6 27.9 -1.9Q28.2 -3.1 28.4 -6.1Q28.9 -5.5 29.7 -4.9Q30.5 -4.4 31.2 -4.1Q30.9 -1.4 30.4 0.2Q29.9 1.7 29 2.3Q28.1 2.9 26.7 2.9Q25.1 2.9 23.8 1.7Q22.5 0.5 21.5 -1.6Q20.5 -3.7 19.7 -6.5Q19 -9.3 18.5 -12.6Q18 -16 17.8 -19.6Q17.6 -23.2 17.5 -26.8ZM26.2 -13.5 29.3 -12.2Q27.6 -9.2 25.4 -6.6Q23.2 -4 20.5 -1.9Q17.8 0.2 14.9 1.7Q14.5 1.1 13.9 0.3Q13.2 -0.5 12.6 -1.1Q15.4 -2.4 18 -4.2Q20.5 -6.1 22.7 -8.5Q24.8 -10.8 26.2 -13.5Z"/><path id="g1" d="M1.9 -13.3H30.2V-10.3H1.9V-13.3ZM16.2 -7.5H28.2V-4.6H16.2V-7.5ZM14.6 -11.8H18.1V0.1H14.6V-11.8ZM9.3 -6.7Q10.2 -4.2 11.8 -3Q13.5 -1.8 15.8 -1.4Q18.1 -1 21 -1Q21.5 -1 22.4 -1Q23.4 -1 24.6 -1Q25.8 -1 27 -1Q28.3 -1 29.3 -1Q30.4 -1 31 -1Q30.8 -0.7 30.6 -0.1Q30.3 0.5 30.1 1.1Q30 1.7 29.9 2.2H27.9H20.8Q18 2.2 15.8 1.9Q13.6 1.6 11.8 0.8Q10 -0.1 8.7 -1.7Q7.4 -3.2 6.4 -5.7L9.3 -6.7ZM6.9 -9.5 10.3 -9Q9.5 -5 7.8 -2.1Q6.1 0.9 3.4 2.8Q3.2 2.5 2.7 2Q2.2 1.6 1.7 1.1Q1.2 0.7 0.8 0.4Q3.3 -1.1 4.8 -3.7Q6.3 -6.2 6.9 -9.5ZM8.3 -19.3V-17.4H23.5V-19.3H8.3ZM8.3 -23.5V-21.6H23.5V-23.5H8.3ZM4.9 -25.9H27V-14.9H4.9V-25.9Z"/><path id="g2" d=""/><path id="g3" d="M2.6 0V-22.3H13Q15.7 -22.3 17.3 -20.8Q18.9 -19.2 18.9 -16.6Q18.9 -14.9 18.3 -13.9Q17.7 -12.9 16.8 -12.4Q15.9 -11.9 14.9 -11.8V-11.6Q15.6 -11.6 16.5 -11.3Q17.3 -11 18 -10.4Q18.8 -9.8 19.2 -8.8Q19.7 -7.8 19.7 -6.4Q19.7 -4.6 19 -3.2Q18.2 -1.7 16.9 -0.9Q15.6 0 14 0H2.6ZM6.8 -9.6V-3.6H12.7Q13.5 -3.6 14.1 -3.9Q14.7 -4.2 15 -4.7Q15.3 -5.2 15.3 -6V-7.1Q15.3 -7.9 15 -8.4Q14.7 -9 14.1 -9.3Q13.5 -9.6 12.7 -9.6H6.8ZM6.8 -18.7V-13H12.1Q12.8 -13 13.4 -13.3Q13.9 -13.6 14.2 -14.1Q14.5 -14.6 14.5 -15.4V-16.4Q14.5 -17.1 14.2 -17.7Q13.9 -18.2 13.4 -18.5Q12.8 -18.7 12.1 -18.7H6.8Z"/><path id="g4" d="M8.7 0H6.5Q4.4 0 3.4 -1.1Q2.4 -2.1 2.4 -4V-23.7H6.5V-3.3H8.7V0Z"/><path id="g5" d="M12.4 0V-2.8H12.2Q11.8 -1.5 10.7 -0.6Q9.6 0.4 7.5 0.4Q5 0.4 3.6 -1.3Q2.2 -3 2.2 -6.1V-16.7H6.3V-6.6Q6.3 -4.8 6.9 -3.9Q7.6 -3 9.1 -3Q9.9 -3 10.7 -3.3Q11.4 -3.6 11.9 -4.2Q12.4 -4.8 12.4 -5.7V-16.7H16.4V0H12.4Z"/><path id="g6" d="M5.9 4.1 4.9 1.8Q6.9 1.1 8 -0Q9.1 -1.2 9.1 -2.7L8.7 -5.7L10.5 -3Q10.1 -2.6 9.6 -2.4Q9.2 -2.3 8.6 -2.3Q7.5 -2.3 6.6 -3Q5.8 -3.7 5.8 -5Q5.8 -6.3 6.6 -7Q7.5 -7.7 8.7 -7.7Q10.3 -7.7 11.1 -6.5Q12 -5.4 12 -3.5Q12 -0.8 10.3 1.2Q8.7 3.2 5.9 4.1Z"/><path id="g7" d="M12.8 -26.7H16.1V-11.1H12.8V-26.7ZM8.9 -21.2H19.6V-18.1H8.9V-21.2ZM9.5 -12.6H12.5V1.5H9.5V-12.6ZM11.3 -12.6H19.3V-0.8H11.3V-3.7H16.3V-9.6H11.3V-12.6ZM22.1 -27.1 25.2 -26.6Q24.7 -23.6 24 -20.6Q23.3 -17.7 22.3 -15.2Q21.3 -12.7 19.9 -10.8Q19.8 -11.1 19.4 -11.6Q19.1 -12.2 18.7 -12.7Q18.3 -13.3 18 -13.6Q19.1 -15.3 19.9 -17.4Q20.7 -19.6 21.2 -22Q21.8 -24.5 22.1 -27.1ZM22.5 -21.1H30.9V-18.2H21.7L22.5 -21.1ZM26.6 -19.9 29.6 -19.7Q29.1 -14.3 28.1 -10Q27 -5.8 25 -2.6Q22.9 0.5 19.6 2.7Q19.4 2.4 19 2Q18.7 1.5 18.2 1.1Q17.8 0.7 17.5 0.4Q20.7 -1.5 22.5 -4.3Q24.4 -7.2 25.3 -11.1Q26.3 -15 26.6 -19.9ZM22.9 -19.1Q23.1 -16.6 23.6 -13.8Q24.1 -11.1 25 -8.5Q25.9 -5.8 27.4 -3.6Q28.9 -1.4 31.1 -0Q30.8 0.3 30.4 0.8Q30 1.2 29.7 1.8Q29.3 2.3 29.1 2.7Q26.8 1 25.2 -1.4Q23.7 -3.9 22.7 -6.7Q21.8 -9.5 21.3 -12.4Q20.7 -15.3 20.5 -17.9L22.9 -19.1ZM6.9 -27 10.1 -26.1Q9.2 -23.3 7.9 -20.5Q6.7 -17.7 5.2 -15.2Q3.7 -12.7 2.1 -10.8Q2 -11.2 1.7 -11.9Q1.4 -12.6 1 -13.3Q0.7 -14 0.4 -14.5Q1.8 -16 3 -18Q4.2 -20 5.2 -22.3Q6.2 -24.6 6.9 -27ZM4.4 -18.5 7.5 -21.6 7.5 -21.5V2.8H4.4V-18.5Z"/><path id="g8" d="M20.8 0H16.4L14.7 -5.7H6.7L4.9 0H0.7L8.2 -22.3H13.4L20.8 0ZM13.6 -9.3 11.8 -15 10.7 -18.5H10.6L9.5 -15L7.7 -9.3H13.6Z"/><path id="g9" d="M11.8 0H1.7V-3.4H4.6V-18.9H1.7V-22.3H11.8V-18.9H8.9V-3.4H11.8V0Z"/><path id="g10" d="M5.4 -23.3H30.4V-20H5.4V-23.3ZM3.6 -23.3H7.1V-14.6Q7.1 -12.7 6.9 -10.4Q6.8 -8.1 6.5 -5.7Q6.2 -3.3 5.6 -1Q5 1.2 4 3.1Q3.7 2.7 3.1 2.4Q2.5 2 2 1.6Q1.4 1.3 0.9 1.1Q1.9 -0.6 2.4 -2.6Q2.9 -4.6 3.2 -6.7Q3.4 -8.8 3.5 -10.9Q3.6 -12.9 3.6 -14.6V-23.3ZM14.7 -26.6 18.1 -27.4Q18.7 -26.3 19.2 -25Q19.8 -23.7 20.1 -22.7L16.5 -21.7Q16.2 -22.7 15.7 -24.1Q15.2 -25.5 14.7 -26.6ZM8.3 -15.7 11.3 -16.8Q12 -15.1 12.7 -13.1Q13.4 -11.2 14 -9.3Q14.6 -7.4 15 -5.9L11.7 -4.6Q11.4 -6.1 10.9 -8Q10.3 -9.9 9.6 -11.9Q9 -13.9 8.3 -15.7ZM14.8 -17.6 18 -18.4Q18.5 -16.7 19.1 -14.7Q19.6 -12.8 20.1 -10.9Q20.5 -9 20.8 -7.5L17.4 -6.6Q17.2 -8.1 16.8 -10Q16.4 -11.9 15.9 -13.9Q15.4 -15.9 14.8 -17.6ZM25.7 -18.6 29.3 -17.3Q28.4 -14.3 27.1 -11.1Q25.9 -7.9 24.3 -4.8Q22.7 -1.8 20.9 0.9Q20.5 0.4 19.9 -0.2Q19.2 -0.9 18.6 -1.3Q20.3 -3.7 21.6 -6.6Q23 -9.6 24 -12.7Q25 -15.7 25.7 -18.6ZM6.8 -1.8H30.7V1.5H6.8V-1.8Z"/><path id="g11" d="M6.6 -24.9H26.5V-21.7H6.6V-24.9ZM6.6 -17.5H26.6V-14.3H6.6V-17.5ZM6.5 -10H26.7V-6.7H6.5V-10ZM4.6 -24.9H8V-13.4Q8 -11.5 7.9 -9.3Q7.7 -7.1 7.2 -4.9Q6.8 -2.7 5.9 -0.7Q5 1.4 3.5 3Q3.3 2.6 2.8 2.2Q2.3 1.7 1.7 1.3Q1.2 0.9 0.8 0.7Q2.1 -0.8 2.9 -2.5Q3.7 -4.2 4.1 -6.1Q4.4 -8 4.5 -9.8Q4.6 -11.7 4.6 -13.4V-24.9ZM25.3 -24.9H28.7V-1.4Q28.7 0 28.4 0.8Q28 1.6 27.1 2Q26.1 2.4 24.6 2.5Q23.2 2.6 20.9 2.6Q20.8 1.9 20.5 0.9Q20.2 -0 19.8 -0.7Q20.8 -0.6 21.8 -0.6Q22.7 -0.6 23.4 -0.6Q24.2 -0.6 24.5 -0.6Q24.9 -0.6 25.1 -0.8Q25.3 -1 25.3 -1.4V-24.9ZM14.6 -23.6H18V2.4H14.6V-23.6Z"/><path id="g12" d="M8 -15H26.3V-11.8H8V-15ZM9.5 -23.1H28.3V-19.8H9.5V-23.1ZM1.6 -8.1H21.6V-4.8H1.6V-8.1ZM25.5 -15H29Q29 -15 29 -14.7Q29 -14.5 29 -14.1Q29 -13.7 28.9 -13.5Q28.5 -8.9 28 -6Q27.6 -3.1 27 -1.5Q26.5 0.2 25.7 0.9Q25 1.7 24.1 2Q23.3 2.3 22.1 2.3Q21.1 2.4 19.5 2.4Q17.9 2.4 16.2 2.3Q16.1 1.5 15.8 0.6Q15.4 -0.4 14.9 -1.1Q16.7 -1 18.5 -0.9Q20.2 -0.9 21 -0.9Q21.6 -0.9 22 -1Q22.4 -1 22.7 -1.3Q23.4 -1.8 23.8 -3.3Q24.3 -4.9 24.7 -7.6Q25.1 -10.4 25.5 -14.5L25.5 -15ZM8 -26.5 11.6 -26.2Q11.3 -24.4 10.9 -22.5Q10.5 -20.5 10.1 -18.6Q9.8 -16.6 9.4 -14.9Q9 -13.2 8.7 -11.8L5 -11.9Q5.4 -13.3 5.8 -15.1Q6.2 -16.9 6.6 -18.8Q7.1 -20.8 7.4 -22.8Q7.8 -24.8 8 -26.5Z"/><path id="g13" d="M2.6 -25.2H29.6V-21.9H2.6V-25.2ZM1.5 -13.7H30.6V-10.4H1.5V-13.7ZM20.2 -23.3H23.8V2.8H20.2V-23.3ZM8.9 -23.3H12.4V-14.8Q12.4 -12.5 12.2 -10.1Q11.9 -7.7 11.1 -5.3Q10.3 -3 8.6 -0.9Q7 1.2 4.2 2.9Q3.9 2.5 3.5 2Q3 1.6 2.4 1.1Q1.9 0.6 1.5 0.4Q4 -1.2 5.5 -3Q7 -4.8 7.7 -6.8Q8.4 -8.7 8.7 -10.8Q8.9 -12.8 8.9 -14.8V-23.3Z"/><path id="g14" d="M13.5 -12.9Q15.6 -7.9 20 -4.6Q24.5 -1.4 31.2 -0.3Q30.8 0.1 30.4 0.6Q30 1.2 29.6 1.8Q29.3 2.4 29 2.8Q24.4 1.9 20.8 -0.1Q17.3 -2.1 14.8 -5.1Q12.3 -8 10.6 -12L13.5 -12.9ZM24.2 -14H24.9L25.5 -14.2L27.9 -13.1Q26.8 -9.7 25 -7.1Q23.2 -4.5 20.8 -2.6Q18.4 -0.6 15.5 0.7Q12.6 2 9.4 2.8Q9.2 2.2 8.6 1.3Q8.1 0.4 7.6 -0.2Q10.5 -0.8 13.1 -1.9Q15.8 -3.1 18 -4.7Q20.1 -6.4 21.7 -8.6Q23.3 -10.7 24.2 -13.5V-14ZM12.5 -14H24.7V-10.7H11.5L12.5 -14ZM14.2 -27.3 18 -26.7Q17.4 -22 16.3 -17.9Q15.3 -13.9 13.6 -10.5Q11.8 -7.1 9.3 -4.4Q6.8 -1.7 3.2 0.3Q3 -0.1 2.6 -0.6Q2.1 -1.1 1.6 -1.7Q1.1 -2.2 0.7 -2.5Q5 -4.8 7.8 -8.5Q10.5 -12.1 12 -16.8Q13.5 -21.6 14.2 -27.3ZM21.4 -25.3 24.1 -26.9Q24.7 -26.2 25.5 -25.4Q26.2 -24.6 26.9 -23.8Q27.6 -23 28 -22.5L25.2 -20.6Q24.8 -21.2 24.2 -22.1Q23.5 -22.9 22.8 -23.7Q22.1 -24.6 21.4 -25.3ZM4.4 -16.2Q4.3 -16.6 4.1 -17.2Q3.9 -17.7 3.7 -18.3Q3.4 -18.9 3.3 -19.3Q3.6 -19.5 3.9 -19.8Q4.3 -20.1 4.6 -20.7Q4.8 -21 5.2 -21.9Q5.6 -22.7 6 -23.9Q6.5 -25.1 6.8 -26.4L10.4 -25.8Q10 -24.4 9.4 -23Q8.8 -21.6 8.2 -20.3Q7.6 -19.1 7 -18.1V-18.1Q7 -18.1 6.6 -17.9Q6.2 -17.7 5.7 -17.4Q5.2 -17.1 4.8 -16.8Q4.4 -16.5 4.4 -16.2ZM4.4 -16.2V-18.8L6.5 -20.2H30.1L30.1 -16.9H7.8Q6.4 -16.9 5.5 -16.7Q4.6 -16.6 4.4 -16.2Z"/><path id="g15" d="M1.6 -17.2H30.4V-14.2H1.6V-17.2ZM4.4 -23.5H22.8V-20.5H4.4V-23.5ZM9.9 -6.2H24.4V-3.6H9.9V-6.2ZM9.9 -1.1H24.4V1.8H9.9V-1.1ZM12.2 -27.1H15.5V-15.6H12.2V-27.1ZM26.2 -26.1 29.2 -24.6Q26 -20.3 21.8 -16.7Q17.6 -13.2 12.8 -10.4Q8 -7.7 2.8 -5.7Q2.6 -6.1 2.2 -6.6Q1.9 -7.2 1.4 -7.7Q1 -8.2 0.7 -8.6Q5.9 -10.3 10.7 -12.9Q15.4 -15.4 19.4 -18.8Q23.4 -22.1 26.2 -26.1ZM8 -11.4H26.6V2.7H23V-8.6H11.4V2.8H8V-11.4Z"/><path id="g16" d="M3.2 -23.7H28.9V-20.1H3.2V-23.7ZM1.5 -3H30.6V0.5H1.5V-3ZM13.9 -21.8H17.8V-1.6H13.9V-21.8Z"/><path id="g17" d="M18.8 -2.2 21 -4.6Q22.8 -3.9 24.7 -3Q26.5 -2.1 28.2 -1.3Q29.8 -0.4 31 0.3L28.2 2.8Q27.1 2.1 25.6 1.2Q24.1 0.3 22.3 -0.6Q20.6 -1.5 18.8 -2.2ZM1.5 -7.2H30.6V-4.2H1.5V-7.2ZM7.8 -20.8H23.9V-18.4H7.8V-20.8ZM7.8 -16.4H23.9V-13.9H7.8V-16.4ZM7.8 -11.9H23.9V-9.4H7.8V-11.9ZM10.2 -4.4 13.3 -2.3Q12 -1.3 10.3 -0.4Q8.7 0.6 6.9 1.4Q5.2 2.2 3.5 2.8Q3.1 2.3 2.4 1.5Q1.6 0.8 1 0.3Q2.7 -0.2 4.4 -1Q6.1 -1.8 7.7 -2.7Q9.2 -3.6 10.2 -4.4ZM6.6 -25.6H25.8V-5.8H22.3V-22.9H9.9V-5.8H6.6V-25.6Z"/><path id="g18" d="M6.2 -7.9Q7.6 -7.9 8.8 -7.2Q9.9 -6.5 10.6 -5.4Q11.3 -4.2 11.3 -2.8Q11.3 -1.4 10.6 -0.3Q9.9 0.9 8.8 1.6Q7.6 2.3 6.2 2.3Q4.8 2.3 3.6 1.6Q2.5 0.9 1.8 -0.3Q1.1 -1.4 1.1 -2.8Q1.1 -4.2 1.8 -5.4Q2.5 -6.5 3.6 -7.2Q4.8 -7.9 6.2 -7.9ZM6.2 0.2Q7.4 0.2 8.3 -0.7Q9.2 -1.6 9.2 -2.8Q9.2 -3.6 8.8 -4.3Q8.4 -5 7.7 -5.4Q7 -5.8 6.2 -5.8Q5.4 -5.8 4.7 -5.4Q4 -5 3.6 -4.3Q3.2 -3.6 3.2 -2.8Q3.2 -2 3.6 -1.3Q4 -0.6 4.7 -0.2Q5.4 0.2 6.2 0.2Z"/></defs><g id="phrase-0" data-phrase="我是 Bluu，做 AI 应用与开发者工具。" fill="#365E73" opacity="1"><use href="#g0" x="214.096" y="64" opacity="1"></use><use href="#g1" x="246.096" y="64" opacity="1"></use><use href="#g2" x="278.096" y="64" opacity="1"></use><use href="#g3" x="285.648" y="64" opacity="1"></use><use href="#g4" x="306.864" y="64" opacity="1"></use><use href="#g5" x="316.272" y="64" opacity="1"></use><use href="#g5" x="335.088" y="64" opacity="1"></use><use href="#g6" x="353.904" y="64" opacity="1"></use><use href="#g7" x="114.928" y="108" opacity="1"></use><use href="#g2" x="146.928" y="108" opacity="1"></use><use href="#g8" x="154.48" y="108" opacity="1"></use><use href="#g9" x="175.984" y="108" opacity="1"></use><use href="#g2" x="189.52" y="108" opacity="1"></use><use href="#g10" x="197.072" y="108" opacity="1"></use><use href="#g11" x="229.072" y="108" opacity="1"></use><use href="#g12" x="261.072" y="108" opacity="1"></use><use href="#g13" x="293.072" y="108" opacity="1"></use><use href="#g14" x="325.072" y="108" opacity="1"></use><use href="#g15" x="357.072" y="108" opacity="1"></use><use href="#g16" x="389.072" y="108" opacity="1"></use><use href="#g17" x="421.072" y="108" opacity="1"></use><use href="#g18" x="453.072" y="108" opacity="1"></use></g></svg>
